<?xml version="1.0" encoding="UTF-8" standalone="no"?>
<!-- Generator: Adobe Illustrator 14.0.0, SVG Export Plug-In . SVG Version: 6.00 Build 43363)  -->

<svg
   xmlns:dc="http://purl.org/dc/elements/1.1/"
   xmlns:cc="http://creativecommons.org/ns#"
   xmlns:rdf="http://www.w3.org/1999/02/22-rdf-syntax-ns#"
   xmlns:svg="http://www.w3.org/2000/svg"
   xmlns="http://www.w3.org/2000/svg"
   xmlns:sodipodi="http://sodipodi.sourceforge.net/DTD/sodipodi-0.dtd"
   xmlns:inkscape="http://www.inkscape.org/namespaces/inkscape"
   version="1.1"
   id="Layer_1"
   x="0px"
   y="0px"
   width="768px"
   height="768px"
   viewBox="0 0 768 768"
   enable-background="new 0 0 768 768"
   xml:space="preserve"
   inkscape:version="0.48.4 r9939"
   sodipodi:docname="instructions.svg"><metadata
     id="metadata217"><rdf:RDF><cc:Work
         rdf:about=""><dc:format>image/svg+xml</dc:format><dc:type
           rdf:resource="http://purl.org/dc/dcmitype/StillImage" /></cc:Work></rdf:RDF></metadata><defs
     id="defs215" /><sodipodi:namedview
     pagecolor="#ffffff"
     bordercolor="#666666"
     borderopacity="1"
     objecttolerance="10"
     gridtolerance="10"
     guidetolerance="10"
     inkscape:pageopacity="0"
     inkscape:pageshadow="2"
     inkscape:window-width="1920"
     inkscape:window-height="1016"
     id="namedview213"
     showgrid="false"
     inkscape:snap-bbox="true"
     inkscape:zoom="0.86915208"
     inkscape:cx="-4.2608542"
     inkscape:cy="374.45947"
     inkscape:window-x="1364"
     inkscape:window-y="-3"
     inkscape:window-maximized="1"
     inkscape:current-layer="Layer_1"><inkscape:grid
       type="xygrid"
       id="grid3975"
       empspacing="5"
       visible="true"
       enabled="true"
       snapvisiblegridlinesonly="true" /></sodipodi:namedview><rect
     style="opacity:0.75000000000000000;fill:#ffffff;fill-opacity:1;stroke:none"
     id="rect4152"
     width="768"
     height="768"
     x="0"
     y="0"
     rx="0.33933008"
     ry="0.25909913" /><g
     opacity="0.75"
     id="g3"><g
       id="XMLID_6_"><g
         id="g6"><linearGradient
           id="SVGID_1_"
           gradientUnits="userSpaceOnUse"
           x1="385.0332"
           y1="731.2373"
           x2="385.0332"
           y2="474.459"><stop
             offset="0"
             style="stop-color:#8EC640"
             id="stop9" /><stop
             offset="0.3231"
             style="stop-color:#8FC641"
             id="stop11" /><stop
             offset="0.4604"
             style="stop-color:#92C745"
             id="stop13" /><stop
             offset="0.5624"
             style="stop-color:#97C94E"
             id="stop15" /><stop
             offset="0.6471"
             style="stop-color:#9FCD5B"
             id="stop17" /><stop
             offset="0.721"
             style="stop-color:#A9D16E"
             id="stop19" /><stop
             offset="0.7873"
             style="stop-color:#B5D783"
             id="stop21" /><stop
             offset="0.848"
             style="stop-color:#C4DE9B"
             id="stop23" /><stop
             offset="0.9044"
             style="stop-color:#D5E7B8"
             id="stop25" /><stop
             offset="0.9551"
             style="stop-color:#E8F2D9"
             id="stop27" /><stop
             offset="1"
             style="stop-color:#FFFFFF"
             id="stop29" /></linearGradient><polygon
           fill="url(#SVGID_1_)"
           points="508.117,613.459 417.927,598.954 409.438,474.459 360.629,474.459 352.141,598.954      261.95,613.459 385.033,731.237    "
           id="polygon31" /></g><g
         id="g33" /></g></g><g
     opacity="0.75"
     id="g35"><g
       id="XMLID_4_"><g
         id="g38"><linearGradient
           id="SVGID_2_"
           gradientUnits="userSpaceOnUse"
           x1="385.5029"
           y1="36.7632"
           x2="385.5029"
           y2="293.5527"><stop
             offset="0"
             style="stop-color:#8EC640"
             id="stop41" /><stop
             offset="0.3231"
             style="stop-color:#8FC641"
             id="stop43" /><stop
             offset="0.4604"
             style="stop-color:#92C745"
             id="stop45" /><stop
             offset="0.5624"
             style="stop-color:#97C94E"
             id="stop47" /><stop
             offset="0.6471"
             style="stop-color:#9FCD5B"
             id="stop49" /><stop
             offset="0.721"
             style="stop-color:#A9D16E"
             id="stop51" /><stop
             offset="0.7873"
             style="stop-color:#B5D783"
             id="stop53" /><stop
             offset="0.848"
             style="stop-color:#C4DE9B"
             id="stop55" /><stop
             offset="0.9044"
             style="stop-color:#D5E7B8"
             id="stop57" /><stop
             offset="0.9551"
             style="stop-color:#E8F2D9"
             id="stop59" /><stop
             offset="1"
             style="stop-color:#FFFFFF"
             id="stop61" /></linearGradient><polygon
           fill="url(#SVGID_2_)"
           points="508.587,154.553 418.396,169.058 409.907,293.553 361.099,293.553 352.61,169.058      262.419,154.553 385.503,36.763    "
           id="polygon63" /></g><g
         id="g65" /></g></g><g
     opacity="0.75"
     id="g67"><g
       id="XMLID_5_"><g
         id="g70"><linearGradient
           id="SVGID_3_"
           gradientUnits="userSpaceOnUse"
           x1="731.2314"
           y1="385"
           x2="474.4531"
           y2="385"><stop
             offset="0"
             style="stop-color:#8EC640"
             id="stop73" /><stop
             offset="0.3231"
             style="stop-color:#8FC641"
             id="stop75" /><stop
             offset="0.4604"
             style="stop-color:#92C745"
             id="stop77" /><stop
             offset="0.5624"
             style="stop-color:#97C94E"
             id="stop79" /><stop
             offset="0.6471"
             style="stop-color:#9FCD5B"
             id="stop81" /><stop
             offset="0.721"
             style="stop-color:#A9D16E"
             id="stop83" /><stop
             offset="0.7873"
             style="stop-color:#B5D783"
             id="stop85" /><stop
             offset="0.848"
             style="stop-color:#C4DE9B"
             id="stop87" /><stop
             offset="0.9044"
             style="stop-color:#D5E7B8"
             id="stop89" /><stop
             offset="0.9551"
             style="stop-color:#E8F2D9"
             id="stop91" /><stop
             offset="1"
             style="stop-color:#FFFFFF"
             id="stop93" /></linearGradient><polygon
           fill="url(#SVGID_3_)"
           points="598.948,352.106 474.453,360.595 474.453,409.404 598.948,417.893 613.453,508.084      731.231,385 613.453,261.916    "
           id="polygon95" /></g><g
         id="g97" /></g></g><g
     id="g99"><radialGradient
       id="SVGID_4_"
       cx="126.9131"
       cy="387.5752"
       r="35.5749"
       gradientTransform="matrix(0 1 -1 0 771.8438 -3.6006)"
       gradientUnits="userSpaceOnUse"><stop
         offset="0"
         style="stop-color:#FFFFFF"
         id="stop102" /><stop
         offset="0.3164"
         style="stop-color:#FDF6CB"
         id="stop104" /><stop
         offset="1"
         style="stop-color:#FBE84F"
         id="stop106" /></radialGradient><path
       fill="url(#SVGID_4_)"
       stroke="#483818"
       stroke-width="3.6016"
       d="M384.269,155.777c-21.228,0-38.434-17.209-38.434-38.435   l0,0c0-9.557,3.485-18.298,9.257-25.021c7.048-8.211,17.504,29.822,29.177,29.822l0,0c11.495,0,21.81-38.189,28.854-30.193   c5.965,6.772,9.58,15.66,9.58,25.393l0,0C422.703,138.568,405.496,155.777,384.269,155.777L384.269,155.777z"
       id="path108" /><g
       id="g110"><path
         fill="none"
         stroke="#483714"
         stroke-width="3.6016"
         d="M412.865,120.29c-2.324,1.662-2.143,13.776-5.574,13.408    c-1.943-0.215-9.863-4.894-9.01-6.588c1.854-3.707,4.463-4.999,7.605-3.324"
         id="path112" /><path
         fill="#FFFFFF"
         d="M404.268,132.002c-2.92-0.583-4.869-3.205-4.34-5.863c0.52-2.642,3.32-4.316,6.248-3.74    c2.924,0.584,4.871,3.201,4.35,5.843C409.996,130.9,407.191,132.578,404.268,132.002z"
         id="path114" /><path
         fill="#483818"
         d="M404.932,127.71c-1.621-0.319-2.641-2.033-2.283-3.844c0.359-1.801,1.959-3,3.576-2.676    c1.627,0.321,2.648,2.04,2.289,3.84C408.158,126.834,406.555,128.038,404.932,127.71z"
         id="path116" /></g></g><g
     opacity="0.75"
     id="g118"><g
       id="XMLID_3_"><g
         id="g121"><linearGradient
           id="SVGID_5_"
           gradientUnits="userSpaceOnUse"
           x1="36.7681"
           y1="384.5303"
           x2="293.5469"
           y2="384.5303"><stop
             offset="0"
             style="stop-color:#8EC640"
             id="stop124" /><stop
             offset="0.3231"
             style="stop-color:#8FC641"
             id="stop126" /><stop
             offset="0.4604"
             style="stop-color:#92C745"
             id="stop128" /><stop
             offset="0.5624"
             style="stop-color:#97C94E"
             id="stop130" /><stop
             offset="0.6471"
             style="stop-color:#9FCD5B"
             id="stop132" /><stop
             offset="0.721"
             style="stop-color:#A9D16E"
             id="stop134" /><stop
             offset="0.7873"
             style="stop-color:#B5D783"
             id="stop136" /><stop
             offset="0.848"
             style="stop-color:#C4DE9B"
             id="stop138" /><stop
             offset="0.9044"
             style="stop-color:#D5E7B8"
             id="stop140" /><stop
             offset="0.9551"
             style="stop-color:#E8F2D9"
             id="stop142" /><stop
             offset="1"
             style="stop-color:#FFFFFF"
             id="stop144" /></linearGradient><polygon
           fill="url(#SVGID_5_)"
           points="154.547,261.446 169.052,351.637 293.547,360.125 293.547,408.935 169.052,417.423      154.547,507.614 36.768,384.53    "
           id="polygon146" /></g><g
         id="g148" /></g></g><g
     id="g150"><radialGradient
       id="SVGID_6_"
       cx="475.0674"
       cy="836.4863"
       r="35.5747"
       gradientTransform="matrix(1 0 0 1 -353.4902 -451.9541)"
       gradientUnits="userSpaceOnUse"><stop
         offset="0"
         style="stop-color:#FFFFFF"
         id="stop153" /><stop
         offset="0.3164"
         style="stop-color:#FDF6CB"
         id="stop155" /><stop
         offset="1"
         style="stop-color:#FBE84F"
         id="stop157" /></radialGradient><path
       fill="url(#SVGID_6_)"
       stroke="#483818"
       stroke-width="3.6016"
       d="M154.042,384.533c0,21.229-17.209,38.434-38.435,38.434l0,0   c-9.557,0-18.298-3.484-25.021-9.258c-8.211-7.047,29.822-17.504,29.822-29.176l0,0c0-11.494-38.189-21.809-30.193-28.854   c6.772-5.965,15.66-9.58,25.393-9.58l0,0C136.833,346.099,154.042,363.306,154.042,384.533L154.042,384.533z"
       id="path159" /><g
       id="g161"><path
         fill="none"
         stroke="#483714"
         stroke-width="3.6016"
         d="M118.554,355.937c1.662,2.324,13.776,2.143,13.408,5.574    c-0.215,1.943-4.894,9.863-6.588,9.01c-3.707-1.854-4.999-4.463-3.324-7.605"
         id="path163" /><path
         fill="#FFFFFF"
         d="M130.266,364.535c-0.583,2.92-3.205,4.869-5.863,4.34c-2.642-0.52-4.316-3.32-3.74-6.248    c0.584-2.924,3.201-4.871,5.843-4.35C129.165,358.806,130.842,361.611,130.266,364.535z"
         id="path165" /><path
         fill="#483818"
         d="M125.974,363.871c-0.319,1.621-2.033,2.641-3.844,2.283c-1.801-0.359-3-1.959-2.676-3.576    c0.321-1.627,2.04-2.648,3.84-2.289C125.099,360.644,126.302,362.248,125.974,363.871z"
         id="path167" /></g></g><g
     id="g169"><radialGradient
       id="SVGID_7_"
       cx="-321.1548"
       cy="836.4863"
       r="35.5749"
       gradientTransform="matrix(-1 0 0 1 325.2686 -451.9541)"
       gradientUnits="userSpaceOnUse"><stop
         offset="0"
         style="stop-color:#FFFFFF"
         id="stop172" /><stop
         offset="0.3164"
         style="stop-color:#FDF6CB"
         id="stop174" /><stop
         offset="1"
         style="stop-color:#FBE84F"
         id="stop176" /></radialGradient><path
       fill="url(#SVGID_7_)"
       stroke="#483818"
       stroke-width="3.6016"
       d="M613.959,384.534c0,21.228,17.209,38.433,38.436,38.433l0,0   c9.557,0,18.299-3.484,25.021-9.258c8.211-7.047-29.822-17.504-29.822-29.175l0,0c0-11.495,38.189-21.81,30.193-28.854   c-6.771-5.965-15.66-9.58-25.393-9.58l0,0C631.168,346.099,613.959,363.306,613.959,384.534L613.959,384.534z"
       id="path178" /><g
       id="g180"><path
         fill="none"
         stroke="#483714"
         stroke-width="3.6016"
         d="M649.447,355.937c-1.662,2.324-13.777,2.143-13.408,5.574    c0.215,1.943,4.895,9.863,6.588,9.01c3.707-1.854,4.998-4.463,3.324-7.605"
         id="path182" /><path
         fill="#FFFFFF"
         d="M637.734,364.535c0.584,2.92,3.205,4.869,5.863,4.34c2.643-0.52,4.316-3.32,3.74-6.248    c-0.584-2.924-3.201-4.871-5.844-4.35C638.836,358.806,637.158,361.611,637.734,364.535z"
         id="path184" /><path
         fill="#483818"
         d="M642.027,363.871c0.318,1.621,2.033,2.641,3.844,2.283c1.801-0.359,3-1.959,2.676-3.576    c-0.32-1.627-2.041-2.648-3.84-2.289C642.902,360.644,641.699,362.248,642.027,363.871z"
         id="path186" /></g></g><g
     id="g188"><radialGradient
       id="SVGID_8_"
       cx="-172.3589"
       cy="768.6846"
       r="35.5749"
       gradientTransform="matrix(0 -1 -1 0 1153.9531 474.334)"
       gradientUnits="userSpaceOnUse"><stop
         offset="0"
         style="stop-color:#FFFFFF"
         id="stop191" /><stop
         offset="0.3164"
         style="stop-color:#FDF6CB"
         id="stop193" /><stop
         offset="1"
         style="stop-color:#FBE84F"
         id="stop195" /></radialGradient><path
       fill="url(#SVGID_8_)"
       stroke="#483818"
       stroke-width="3.6016"
       d="M385.268,614.229c-21.227,0-38.433,17.209-38.433,38.436   l0,0c0,9.557,3.485,18.297,9.258,25.021c7.048,8.211,17.504-29.822,29.175-29.822l0,0c11.496,0,21.811,38.189,28.855,30.193   c5.965-6.773,9.58-15.66,9.58-25.393l0,0C423.703,631.438,406.496,614.229,385.268,614.229L385.268,614.229z"
       id="path197" /><g
       id="g199"><path
         fill="none"
         stroke="#483714"
         stroke-width="3.6016"
         d="M413.865,649.717c-2.324-1.662-2.143-13.777-5.574-13.408    c-1.943,0.215-9.863,4.893-9.01,6.588c1.854,3.707,4.463,4.998,7.605,3.324"
         id="path201" /><path
         fill="#FFFFFF"
         d="M405.268,638.004c-2.92,0.584-4.869,3.205-4.34,5.863c0.52,2.641,3.32,4.316,6.248,3.74    c2.924-0.584,4.871-3.201,4.35-5.844C410.996,639.105,408.191,637.428,405.268,638.004z"
         id="path203" /><path
         fill="#483818"
         d="M405.932,642.295c-1.621,0.32-2.641,2.033-2.283,3.846c0.359,1.801,1.959,2.998,3.576,2.676    c1.627-0.322,2.648-2.041,2.289-3.84C409.158,643.172,407.555,641.967,405.932,642.295z"
         id="path205" /></g></g><circle
     cx="384.26901"
     cy="385"
     r="72"
     id="circle207"
     sodipodi:cx="384.26901"
     sodipodi:cy="385"
     sodipodi:rx="72"
     sodipodi:ry="72"
     transform="translate(-0.26901245,-1)"
     style="opacity:0.75;fill:#8dc63f" /><rect
     x="280.267"
     y="347.271"
     fill="none"
     width="207.466"
     height="88.537"
     id="rect209" /><text
     xml:space="preserve"
     style="font-size:12px;font-style:normal;font-variant:normal;font-weight:normal;font-stretch:normal;text-align:center;line-height:125%;letter-spacing:0px;word-spacing:0px;text-anchor:middle;fill:#fdf6cb;fill-opacity:1;stroke:#483818;stroke-width:3;stroke-miterlimit:4;stroke-opacity:1;stroke-dasharray:none;font-family:FreeMono;-inkscape-font-specification:FreeMono"
     x="390.86755"
     y="407.01401"
     id="text3014"
     sodipodi:linespacing="125%"><tspan
       sodipodi:role="line"
       x="390.86755"
       y="407.01401"
       style="font-size:74px;font-weight:bold;fill:#fdf6cb;fill-opacity:1;stroke:#483818;stroke-width:3;stroke-miterlimit:4;stroke-opacity:1;stroke-dasharray:none"
       id="tspan4054">Go!</tspan></text>
</svg>